#!OML:ASF H:\LiuWeirdWalks\Patient Classification 1\Patient 1\Session 1\male.ASF
:FULLY-SPECIFIED
:DEGREES
365
root 1.09409 17.856 -13.2815 5.77342 15.8555 6.54108
lowerback 5.6902 -0.256284 -10.9776
upperback -0.54537 -1.10558 -0.177134
thorax -3.58238 -0.332931 6.08017
lowerneck -17.4792 -2.12232 0.567765
upperneck 13.5618 -2.9542 -0.379396
head 6.99989 -1.42228 -0.539171
rclavicle -7.66563e-015 -8.54774e-015
rhumerus -29.8193 -5.10846 -81.7301
rradius 29.8346
rwrist -7.42418
rhand -15.2487 -1.69446
rfingers 7.12502
rthumb 10.9249 -31.3902
lclavicle -7.66563e-015 -8.54774e-015
lhumerus -26.5099 -2.51055 86.2899
lradius 37.3374
lwrist 12.7432
lhand -16.1117 0.34566
lfingers 7.12502
lthumb 10.0924 30.0836
rfemur -37.8434 -6.93155 11.3436
rtibia 30.8088
rfoot -10.5539 -23.9517
rtoes -11.0529
lfemur 4.31954 2.2662 -26.7728
ltibia 11.3066
lfoot -14.4249 -0.259456
ltoes -11.1875
366
root 1.09867 17.8402 -13.1512 5.8907 15.8704 6.61898
lowerback 5.67711 -0.220418 -10.982
upperback -0.544849 -1.05686 -0.189057
thorax -3.58366 -0.308724 6.06584
lowerneck -17.5249 -2.13102 0.497919
upperneck 13.4247 -2.95484 -0.338519
head 6.96464 -1.42322 -0.513949
rclavicle 1.06474e-014 -1.11319e-014
rhumerus -29.8071 -5.24341 -81.6571
rradius 29.6287
rwrist -7.31311
rhand -15.2008 -1.73072
rfingers 7.12502
rthumb 10.9711 -31.424
lclavicle 1.06474e-014 -1.11319e-014
lhumerus -26.6039 -2.39849 86.3908
lradius 37.0622
lwrist 12.5967
lhand -16.1745 0.400454
lfingers 7.12502
lthumb 10.0318 30.1414
rfemur -38.1389 -6.81306 11.2908
rtibia 30.8234
rfoot -10.4976 -23.8579
rtoes -11.0508
lfemur 4.94401 2.16836 -26.7852
ltibia 10.7697
lfoot -14.3687 -0.0666682
ltoes -11.5179
367
root 1.10252 17.823 -13.0192 6.00471 15.8662 6.68945
lowerback 5.65511 -0.1817 -10.987
upperback -0.546033 -1.00332 -0.200112
thorax -3.58257 -0.282178 6.0522
lowerneck -17.5111 -2.11982 0.48579
upperneck 13.2507 -2.93782 -0.324356
head 6.9062 -1.41545 -0.503721
rclavicle -4.65653e-014 1.11319e-014
rhumerus -29.8133 -5.38583 -81.5905
rradius 29.4469
rwrist -7.21474
rhand -15.1603 -1.75006
rfingers 7.12502
rthumb 11.0101 -31.4413
lclavicle -4.65653e-014 1.11319e-014
lhumerus -26.7279 -2.27672 86.4856
lradius 36.7597
lwrist 12.4383
lhand -16.2656 0.546638
lfingers 7.12502
lthumb 9.94397 30.2918
rfemur -38.4327 -6.7159 11.2726
rtibia 30.94
rfoot -10.405 -23.6973
rtoes -11.0754
lfemur 5.5692 2.04586 -26.7953
ltibia 10.2468
lfoot -14.3074 0.186692
ltoes -11.8942
368
root 1.10496 17.8043 -12.8853 6.11612 15.8506 6.75341
lowerback 5.64797 -0.145855 -10.997
upperback -0.555704 -0.956372 -0.209231
thorax -3.59757 -0.257558 6.04434
lowerneck -17.5036 -2.08514 0.546456
upperneck 13.0361 -2.89736 -0.366701
head 6.83378 -1.3981 -0.520739
rclavicle 2.09097e-014 2.78299e-015
rhumerus -29.8278 -5.533 -81.5352
rradius 29.2683
rwrist -7.11741
rhand -15.1393 -1.72862
rfingers 7.12502
rthumb 11.0304 -31.4188
lclavicle 2.09097e-014 2.78299e-015
lhumerus -26.89 -2.13339 86.5651
lradius 36.437
lwrist 12.2693
lhand -16.3608 0.720254
lfingers 7.12502
lthumb 9.85211 30.4698
rfemur -38.7274 -6.63578 11.2902
rtibia 31.1627
rfoot -10.3014 -23.498
rtoes -11.1087
lfemur 6.20264 1.8318 -26.8072
ltibia 9.72226
lfoot -14.2105 0.545873
ltoes -12.3073
369
root 1.10655 17.7844 -12.7496 6.22686 15.8267 6.81774
lowerback 5.64499 -0.112414 -11.0108
upperback -0.570008 -0.913733 -0.218368
thorax -3.619 -0.234461 6.03904
lowerneck -17.5069 -2.06072 0.57977
upperneck 12.8503 -2.86934 -0.379267
head 6.77349 -1.38519 -0.525462
rclavicle 3.07122e-014 3.3197e-014
rhumerus -29.8568 -5.68321 -81.4859
rradius 29.1026
rwrist -7.01449
rhand -15.1372 -1.68223
rfingers 7.12502
rthumb 11.0324 -31.3723
lclavicle 3.07122e-014 3.3197e-014
lhumerus -27.0811 -1.95574 86.6325
lradius 36.0805
lwrist 12.0537
lhand -16.4396 0.850396
lfingers 7.12502
lthumb 9.77603 30.6035
rfemur -39.0246 -6.59345 11.3424
rtibia 31.4954
rfoot -10.1558 -23.2625
rtoes -11.1422
lfemur 6.8503 1.62609 -26.8219
ltibia 9.18409
lfoot -14.0909 0.92006
ltoes -12.7502
370
root 1.10723 17.763 -12.6112 6.32896 15.7998 6.89259
lowerback 5.64711 -0.0877686 -11.0483
upperback -0.583489 -0.88496 -0.225755
thorax -3.63963 -0.217817 6.05006
lowerneck -17.5062 -2.01469 0.652091
upperneck 12.6325 -2.817 -0.419423
head 6.70137 -1.36133 -0.542468
rclavicle -1.65488e-014 3.1408e-014
rhumerus -29.8867 -5.82493 -81.4479
rradius 28.9355
rwrist -6.90308
rhand -15.1404 -1.62076
rfingers 7.12502
rthumb 11.0293 -31.311
lclavicle -1.65488e-014 3.1408e-014
lhumerus -27.305 -1.73044 86.6804
lradius 35.6989
lwrist 11.8007
lhand -16.4716 0.970073
lfingers 7.12502
lthumb 9.74519 30.7246
rfemur -39.3106 -6.59139 11.4192
rtibia 31.9412
rfoot -9.98479 -23.0007
rtoes -11.1481
lfemur 7.53218 1.41936 -26.8479
ltibia 8.62167
lfoot -13.9413 1.31696
ltoes -13.2217
371
root 1.10752 17.7403 -12.4704 6.42766 15.7679 6.973
lowerback 5.6574 -0.0738526 -11.0937
upperback -0.595733 -0.871873 -0.229543
thorax -3.66055 -0.208778 6.07078
lowerneck -17.564 -1.9697 0.716602
upperneck 12.4465 -2.76549 -0.455478
head 6.64967 -1.33761 -0.557998
rclavicle -3.82909e-014 -2.68359e-014
rhumerus -29.9109 -5.95075 -81.4182
rradius 28.7744
rwrist -6.78267
rhand -15.149 -1.57682
rfingers 7.12502
rthumb 11.021 -31.2675
lclavicle -3.82909e-014 -2.68359e-014
lhumerus -27.5485 -1.43715 86.7057
lradius 35.2871
lwrist 11.484
lhand -16.4211 1.01707
lfingers 7.12502
lthumb 9.79386 30.7693
rfemur -39.5913 -6.62935 11.5221
rtibia 32.4987
rfoot -9.79968 -22.7131
rtoes -11.0768
lfemur 8.24689 1.21901 -26.8849
ltibia 8.0268
lfoot -13.7632 1.73702
ltoes -13.6895
372
root 1.10747 17.716 -12.327 6.52208 15.7365 7.059
lowerback 5.6615 -0.0737347 -11.1468
upperback -0.601262 -0.876282 -0.229232
thorax -3.66744 -0.209255 6.10152
lowerneck -17.6491 -1.92351 0.753344
upperneck 12.2675 -2.7091 -0.471759
head 6.60554 -1.31104 -0.562548
rclavicle 7.30782e-014 3.73715e-014
rhumerus -29.902 -6.06535 -81.3949
rradius 28.5958
rwrist -6.66492
rhand -15.1255 -1.59505
rfingers 7.12502
rthumb 11.0438 -31.2845
lclavicle 7.30782e-014 3.73715e-014
lhumerus -27.7976 -1.06458 86.7067
lradius 34.8328
lwrist 11.1017
lhand -16.2956 1.06694
lfingers 7.12502
lthumb 9.915 30.8134
rfemur -39.8594 -6.70483 11.6472
rtibia 33.1598
rfoot -9.56816 -22.4038
rtoes -10.9593
lfemur 8.98915 1.01793 -26.9323
ltibia 7.41422
lfoot -13.5557 2.18746
ltoes -14.1466
373
root 1.10681 17.6906 -12.1806 6.60193 15.6979 7.11702
lowerback 5.66137 -0.0799603 -11.1836
upperback -0.604685 -0.886833 -0.214974
thorax -3.66847 -0.213402 6.13827
lowerneck -17.7333 -1.87653 0.767043
upperneck 12.0849 -2.64887 -0.470192
head 6.56077 -1.28214 -0.557197
rclavicle 5.27773e-014 -6.16232e-015
rhumerus -29.8843 -6.17425 -81.3727
rradius 28.4156
rwrist -6.55717
rhand -15.0776 -1.64588
rfingers 7.12502
rthumb 11.0899 -31.3329
lclavicle 5.27773e-014 -6.16232e-015
lhumerus -28.0566 -0.633381 86.6865
lradius 34.3372
lwrist 10.6894
lhand -16.1143 1.09786
lfingers 7.12502
lthumb 10.0899 30.836
rfemur -40.1044 -6.76658 11.8143
rtibia 33.9138
rfoot -9.33126 -22.1136
rtoes -10.7853
lfemur 9.74977 0.827033 -26.9544
ltibia 6.80987
lfoot -13.3355 2.67299
ltoes -14.5807
374
root 1.10547 17.6642 -12.0318 6.6819 15.6567 7.15159
lowerback 5.64516 -0.0925182 -11.2046
upperback -0.612264 -0.902557 -0.1907
thorax -3.6638 -0.220503 6.17705
lowerneck -17.8214 -1.82822 0.755269
upperneck 11.9092 -2.58487 -0.442067
head 6.51966 -1.2502 -0.538913
rclavicle -6.73383e-015 -2.22639e-014
rhumerus -29.8603 -6.27997 -81.3495
rradius 28.2289
rwrist -6.47179
rhand -15.025 -1.71455
rfingers 7.12502
rthumb 11.1406 -31.3988
lclavicle -6.73383e-015 -2.22639e-014
lhumerus -28.329 -0.15024 86.6454
lradius 33.7967
lwrist 10.2528
lhand -15.8915 1.09811
lfingers 7.12502
lthumb 10.3048 30.8257
rfemur -40.3361 -6.82112 12.0191
rtibia 34.7465
rfoot -9.10629 -21.8508
rtoes -10.5945
lfemur 10.4882 0.639694 -26.9551
ltibia 6.25955
lfoot -13.1113 3.19599
ltoes -14.9941
